<svg width="32" height="32" viewBox="0 0 32 32" fill="none" xmlns="http://www.w3.org/2000/svg">
<g id="Info" clip-path="url(#clip0_1_157)">
<path id="Icon" d="M16 1C16.2844 1 16.5722 1.07329 16.8428 1.22363L16.958 1.29297C17.2627 1.49103 17.5341 1.78768 17.7334 2.16699V2.16602L30.6953 27.1436V27.1445C30.8667 27.4872 30.9701 27.8768 30.9941 28.2822L31 28.457C31.001 28.8664 30.9207 29.2654 30.7705 29.6221L30.7012 29.7725C30.5313 30.1165 30.3026 30.397 30.042 30.6016L29.9287 30.6846C29.6228 30.8924 29.2882 30.9958 28.958 31H3.04199C2.75308 30.9963 2.46089 30.9168 2.1875 30.7578L2.07129 30.6846C1.80221 30.5018 1.56116 30.2416 1.375 29.916L1.29883 29.7725C1.12887 29.4282 1.02692 29.0377 1.00488 28.6318L1 28.457C1.00118 27.9892 1.10878 27.5362 1.30469 27.1445L1.30371 27.1436L14.2656 2.16602L14.2666 2.16699C14.441 1.83505 14.6708 1.56667 14.9297 1.37207L15.042 1.29297C15.3452 1.09592 15.6749 1 16 1Z" stroke="#EBA40D" stroke-width="2" stroke-linecap="round" stroke-linejoin="round"/>
</g>
<defs>
<clipPath id="clip0_1_157">
<rect width="32" height="32" fill="white"/>
</clipPath>
</defs>
</svg>
